<?xml version="1.0" encoding="utf-8"?>
<svg xmlns="http://www.w3.org/2000/svg" viewBox="0 0 500 189" xmlns:bx="https://boxy-svg.com">
  <g transform="matrix(1.141242, 0, 0, 1.141242, -37.783001, -32.657761)" style="" id="object-0">
    <path d="M 69.41 136.083 Q 64.079 136.083 61.31 134.737 Q 58.541 133.392 57.584 130.338 Q 56.626 127.284 56.626 122.212 L 56.626 75.733 Q 56.626 70.558 57.584 67.53 Q 58.541 64.502 61.31 63.182 Q 64.079 61.862 69.41 61.862 L 85.3 61.862 Q 96.428 61.862 104.787 65.175 Q 113.146 68.487 117.804 76.38 Q 122.462 84.273 122.462 98.041 Q 122.462 111.809 117.804 120.167 Q 113.146 128.526 104.787 132.305 Q 96.428 136.083 85.3 136.083 Z M 79.244 75.475 Q 75.828 75.475 74.586 76.924 Q 73.344 78.373 73.344 81.893 L 73.344 116.053 Q 73.344 119.52 74.586 121.021 Q 75.828 122.522 79.244 122.522 L 81.625 122.522 Q 92.701 122.522 98.783 117.088 Q 104.865 111.653 104.865 98.248 Q 104.865 89.294 102.095 84.351 Q 99.326 79.408 94.099 77.441 Q 88.871 75.475 81.522 75.475 Z M 150.461 92.917 L 150.668 92.917 Q 154.55 82.151 164.642 82.151 Q 165.936 82.151 166.764 82.281 Q 167.593 82.41 167.903 82.514 Q 168.68 82.772 168.68 83.704 L 168.68 96.178 Q 168.68 97.782 166.816 97.058 Q 166.195 96.799 165.031 96.514 Q 163.866 96.229 161.796 96.229 Q 156.465 96.229 153.463 100.137 Q 150.461 104.045 150.461 110.773 L 150.461 133.34 Q 150.461 134.893 149.814 135.488 Q 149.167 136.083 147.614 136.083 L 136.952 136.083 Q 135.399 136.083 134.752 135.488 Q 134.105 134.893 134.105 133.34 L 134.105 89.967 Q 134.105 88.725 134.623 88.052 Q 135.71 86.603 137.237 85.102 Q 138.763 83.601 140.989 81.893 Q 141.403 81.582 141.817 81.479 Q 142.231 81.375 142.542 81.375 Q 143.266 81.375 143.991 81.893 Q 148.287 85.257 149.995 87.638 Q 150.461 88.259 150.461 89.087 Z M 189.588 137.377 Q 181.98 137.377 177.503 133.107 Q 173.026 128.837 173.026 121.332 Q 173.026 117.45 174.449 114.112 Q 175.873 110.773 179.418 108.211 Q 182.963 105.649 189.355 104.097 Q 195.748 102.544 205.685 102.285 Q 205.685 97.575 203.33 95.505 Q 200.975 93.435 196.265 93.435 Q 192.021 93.435 189.33 94.884 Q 186.638 96.333 185.965 96.851 Q 185.241 97.472 184.206 97.316 Q 182.808 97.109 181.229 96.592 Q 179.651 96.074 177.839 95.401 Q 177.581 95.298 177.27 95.065 Q 176.959 94.832 176.908 94.366 Q 176.908 94.107 176.959 93.719 Q 177.011 93.331 177.218 92.296 Q 177.425 91.261 177.839 89.734 Q 178.253 88.207 178.616 87.379 Q 179.082 86.499 180.168 85.723 Q 181.048 84.998 185.499 83.394 Q 189.951 81.789 198.387 81.789 Q 221.626 81.789 221.626 104.407 L 221.626 133.702 Q 221.626 134.686 221.083 135.384 Q 220.54 136.083 219.246 136.083 L 211.482 136.083 Q 210.654 136.083 210.007 135.85 Q 209.36 135.617 208.79 134.944 L 205.582 130.804 L 205.219 130.804 Q 202.838 134.271 198.827 135.824 Q 194.816 137.377 189.588 137.377 Z M 195.282 125.369 Q 200.043 125.369 202.476 122.937 Q 204.909 120.504 205.582 117.916 L 205.582 112.171 Q 198.387 112.171 194.79 113.284 Q 191.193 114.396 190.002 116.182 Q 188.812 117.968 188.812 120.038 Q 188.812 123.04 190.675 124.205 Q 192.539 125.369 195.282 125.369 Z M 286.84 88.052 L 286.84 130.027 Q 286.84 145.141 278.222 153.06 Q 269.604 160.979 254.595 160.979 Q 248.384 160.979 244.761 160.073 Q 241.138 159.167 239.274 158.339 Q 238.084 157.77 237.722 157.148 Q 237.204 156.32 236.557 154.716 Q 235.91 153.111 235.341 151.196 Q 235.186 150.472 235.289 150.109 Q 235.496 149.592 236.065 149.022 Q 236.997 148.091 238.731 146.849 Q 240.465 145.606 241.396 145.244 Q 242.38 144.882 243.208 145.348 Q 244.554 146.072 247.064 146.978 Q 249.574 147.884 254.129 147.884 Q 261.375 147.884 265.93 144.157 Q 270.484 140.431 270.484 132.667 L 270.484 130.804 L 270.277 130.804 Q 269.139 132.253 267.327 133.754 Q 265.516 135.255 262.643 136.29 Q 259.77 137.325 255.268 137.325 Q 247.452 137.325 242.457 133.935 Q 237.463 130.545 235.108 124.593 Q 232.753 118.641 232.753 111.032 Q 232.753 102.699 235.496 96.074 Q 238.239 89.449 244.709 85.593 Q 251.179 81.737 262.41 81.737 Q 269.139 81.737 273.719 82.721 Q 278.3 83.704 281.405 85.153 Q 284.511 86.603 286.84 88.052 Z M 261.841 94.263 Q 255.837 94.263 252.68 98.3 Q 249.522 102.337 249.522 110.825 Q 249.522 124.127 260.495 124.127 Q 264.791 124.127 267.068 122.367 Q 269.346 120.607 270.484 117.916 L 270.484 96.54 Q 269.346 95.712 267.275 94.987 Q 265.205 94.263 261.841 94.263 Z" style="fill: rgb(45, 99, 107); text-wrap-mode: nowrap;"/>
    <path d="M 344.146 106.374 Q 344.871 103.579 345.725 100.862 Q 346.579 98.145 347.821 94.78 Q 348.908 91.778 350.461 87.871 Q 352.014 83.963 353.747 79.926 Q 355.481 75.889 357.138 72.421 Q 358.794 68.953 360.14 66.883 Q 361.796 64.347 363.737 63.104 Q 365.678 61.862 369.456 61.862 L 376.236 61.862 Q 378.928 61.862 380.765 62.665 Q 382.602 63.467 383.379 66.469 Q 383.948 68.694 384.466 72.99 Q 384.983 77.286 385.346 84.895 Q 385.708 92.503 385.915 104.433 Q 386.122 116.363 386.122 133.909 Q 386.122 134.841 385.501 135.462 Q 384.88 136.083 384 136.083 L 372.199 136.083 Q 371.319 136.083 370.698 135.462 Q 370.077 134.841 370.077 133.857 Q 370.077 120.193 370.077 110.67 Q 370.077 101.146 370.025 94.884 Q 369.974 88.621 369.896 84.92 Q 369.818 81.22 369.663 79.201 L 369.352 79.201 Q 366.609 85.516 363.504 93.253 Q 360.398 100.991 357.448 109.195 Q 354.498 117.398 352.169 125.214 Q 351.496 127.543 350.487 128.449 Q 349.477 129.354 345.906 129.354 L 339.954 129.354 Q 336.9 129.354 335.891 128.578 Q 334.882 127.802 334.157 125.214 Q 332.449 119.313 330.379 112.74 Q 328.309 106.167 326.109 99.827 Q 323.909 93.486 321.865 88.129 Q 319.82 82.772 318.216 79.201 L 317.905 79.201 Q 317.491 85.309 317.181 94.056 Q 316.87 102.803 316.689 113.051 Q 316.508 123.299 316.456 133.961 Q 316.456 134.893 315.835 135.488 Q 315.214 136.083 314.334 136.083 L 303.724 136.083 Q 302.844 136.083 302.223 135.462 Q 301.602 134.841 301.602 133.857 Q 301.653 106.27 302.714 89.812 Q 303.775 73.353 305.018 67.763 Q 305.846 64.088 307.942 62.975 Q 310.038 61.862 312.729 61.862 L 321.114 61.862 Q 323.961 61.862 325.281 62.872 Q 326.601 63.881 328.516 66.779 Q 329.654 68.487 331.233 71.903 Q 332.811 75.319 334.519 79.486 Q 336.227 83.652 337.754 87.715 Q 339.281 91.778 340.265 94.78 Q 341.3 97.834 342.18 100.707 Q 343.06 103.579 343.732 106.374 Z M 425.296 137.377 Q 416.549 137.377 410.079 134.556 Q 403.609 131.735 400.038 125.783 Q 396.466 119.831 396.466 110.411 Q 396.466 96.281 403.713 89.035 Q 410.959 81.789 422.966 81.789 Q 430.782 81.789 436.191 84.584 Q 441.599 87.379 444.42 92.296 Q 447.241 97.213 447.241 103.527 Q 447.241 109.687 444.084 112.119 Q 440.926 114.552 434.871 114.552 L 412.667 114.552 Q 413.081 119.883 416.574 122.678 Q 420.068 125.473 426.072 125.473 Q 430.834 125.473 433.706 124.049 Q 436.579 122.626 437.717 121.798 Q 438.701 121.073 439.943 121.125 Q 440.926 121.125 442.764 121.513 Q 444.601 121.901 446.413 122.937 Q 447.707 123.609 447.707 124.8 Q 447.707 125.473 447.448 126.715 Q 447.293 127.439 446.93 128.811 Q 446.568 130.183 445.999 131.373 Q 445.688 131.942 445.015 132.46 Q 443.98 133.185 441.677 134.375 Q 439.374 135.565 435.388 136.471 Q 431.403 137.377 425.296 137.377 Z M 412.563 103.941 L 429.436 103.941 Q 432.076 103.941 432.076 101.509 Q 432.076 97.834 429.773 95.324 Q 427.469 92.813 422.863 92.813 Q 417.842 92.813 415.487 96.022 Q 413.133 99.231 412.563 103.941 Z" style="fill: rgb(102, 143, 150); text-wrap-mode: nowrap;"/>
  </g>
  <defs>
    <bx:export>
      <bx:file format="png" href="#object-0" path="DragMe.png" dpi="171"/>
    </bx:export>
  </defs>
</svg>